<svg width="248" height="422" viewBox="0 0 248 422" fill="none" xmlns="http://www.w3.org/2000/svg">
<ellipse cx="124.5" cy="403" rx="123.5" ry="19" fill="#B6B5B5"/>
<ellipse cx="127" cy="396.5" rx="67" ry="7.5" fill="#6C6A6A"/>
<path d="M133.968 372.732C132.142 376.296 127.077 376.375 125.141 372.869L57.1261 249.706L17.5 186L9.14817 167.822C9.04951 167.608 8.9662 167.386 8.89887 167.16L5.41003 155.425C4.45707 152.219 6.8585 149 10.2026 149L238.663 148.993C242.046 148.993 244.453 152.284 243.427 155.509L238.5 171L232 184.5L196.997 249.702L133.968 372.732Z" fill="#4EB012"/>
<circle cx="124.316" cy="123.623" r="123.623" fill="#4EB012"/>
<path d="M194.19 116.829C194.19 154.635 164.11 182.748 127.004 182.748C89.8974 182.748 59.8169 154.635 59.8169 116.829C59.8169 79.0224 89.8974 48.3744 127.004 48.3744C164.11 48.3744 194.19 79.0224 194.19 116.829Z" fill="white"/>
<rect x="118.941" y="75.2491" width="21.4997" height="75.249" rx="10.7499" fill="#615858"/>
<rect x="92.0665" y="123.623" width="21.4997" height="75.249" rx="10.7499" transform="rotate(-90 92.0665 123.623)" fill="#615858"/>
<rect x="148.407" y="78.2687" width="21.4997" height="75.249" rx="10.7499" transform="rotate(45.4274 148.407 78.2687)" fill="#4EB012"/>
<rect x="95.0861" y="93.074" width="21.1929" height="75.249" rx="10.5965" transform="rotate(-44.5726 95.0861 93.074)" fill="#4EB012"/>
</svg>
